<mxfile host="app.diagrams.net" agent="Mozilla/5.0 (Windows NT 10.0; Win64; x64) AppleWebKit/537.36 (KHTML, like Gecko) Chrome/127.0.0.0 Safari/537.36" version="24.7.7" pages="2">
  <diagram name="Copy of Page-2" id="Q5-stTP3Ya_nGFJ0BPs8">
    <mxGraphModel dx="1713" dy="1515" grid="0" gridSize="10" guides="1" tooltips="1" connect="1" arrows="1" fold="1" page="0" pageScale="1" pageWidth="827" pageHeight="1169" math="0" shadow="0">
      <root>
        <mxCell id="ILRJBUVe7SrAcvfU9ZJN-0" />
        <mxCell id="ILRJBUVe7SrAcvfU9ZJN-1" parent="ILRJBUVe7SrAcvfU9ZJN-0" />
        <mxCell id="ILRJBUVe7SrAcvfU9ZJN-2" value="&lt;b&gt;KORISNIK&lt;/b&gt;" style="rounded=0;whiteSpace=wrap;html=1;" vertex="1" parent="ILRJBUVe7SrAcvfU9ZJN-1">
          <mxGeometry x="-288" y="-285" width="120" height="60" as="geometry" />
        </mxCell>
        <mxCell id="ILRJBUVe7SrAcvfU9ZJN-3" value="P0" style="swimlane;childLayout=stackLayout;horizontal=1;startSize=50;horizontalStack=0;rounded=1;fontSize=14;fontStyle=0;strokeWidth=2;resizeParent=0;resizeLast=1;shadow=0;dashed=0;align=center;arcSize=4;whiteSpace=wrap;html=1;" vertex="1" parent="ILRJBUVe7SrAcvfU9ZJN-1">
          <mxGeometry x="68" y="-315" width="160" height="120" as="geometry" />
        </mxCell>
        <mxCell id="ILRJBUVe7SrAcvfU9ZJN-4" value="&lt;br&gt;&lt;div&gt;&lt;b&gt;KAFIĆ&lt;/b&gt;&lt;/div&gt;" style="align=center;strokeColor=none;fillColor=none;spacingLeft=4;fontSize=12;verticalAlign=top;resizable=0;rotatable=0;part=1;html=1;" vertex="1" parent="ILRJBUVe7SrAcvfU9ZJN-3">
          <mxGeometry y="50" width="160" height="70" as="geometry" />
        </mxCell>
        <mxCell id="ILRJBUVe7SrAcvfU9ZJN-5" value="&lt;b&gt;ADMINISTRATOR&lt;/b&gt;" style="rounded=0;whiteSpace=wrap;html=1;" vertex="1" parent="ILRJBUVe7SrAcvfU9ZJN-1">
          <mxGeometry x="88" y="-588" width="120" height="60" as="geometry" />
        </mxCell>
        <mxCell id="ILRJBUVe7SrAcvfU9ZJN-6" value="&lt;b&gt;SUSTAV NAPLATE&lt;/b&gt;" style="rounded=0;whiteSpace=wrap;html=1;" vertex="1" parent="ILRJBUVe7SrAcvfU9ZJN-1">
          <mxGeometry x="503" y="-285" width="120" height="60" as="geometry" />
        </mxCell>
        <mxCell id="ILRJBUVe7SrAcvfU9ZJN-7" value="&lt;b&gt;ODRŽAVANJE SUSTAVA&lt;/b&gt;" style="rounded=0;whiteSpace=wrap;html=1;" vertex="1" parent="ILRJBUVe7SrAcvfU9ZJN-1">
          <mxGeometry x="88" y="14" width="120" height="60" as="geometry" />
        </mxCell>
        <mxCell id="ILRJBUVe7SrAcvfU9ZJN-8" value="" style="endArrow=classic;html=1;rounded=0;fontSize=12;startSize=8;endSize=8;curved=1;exitX=1;exitY=0.25;exitDx=0;exitDy=0;" edge="1" parent="ILRJBUVe7SrAcvfU9ZJN-1" source="ILRJBUVe7SrAcvfU9ZJN-2">
          <mxGeometry width="50" height="50" relative="1" as="geometry">
            <mxPoint x="99" y="-240" as="sourcePoint" />
            <mxPoint x="63" y="-270" as="targetPoint" />
          </mxGeometry>
        </mxCell>
        <mxCell id="ILRJBUVe7SrAcvfU9ZJN-9" value="&lt;h5 style=&quot;&quot;&gt;&lt;div style=&quot;font-size: 12px;&quot;&gt;&lt;div&gt;&lt;span style=&quot;font-weight: 400;&quot;&gt;&lt;br&gt;&lt;/span&gt;&lt;/div&gt;&lt;ul&gt;&lt;li&gt;&lt;span style=&quot;font-weight: 400;&quot;&gt;Unos narudžbi od gostiju&lt;/span&gt;&lt;/li&gt;&lt;li style=&quot;&quot;&gt;&lt;span style=&quot;font-weight: 400;&quot;&gt;Ažuriranje stanja stolova (slobano, zauzeto)&lt;/span&gt;&lt;/li&gt;&lt;li style=&quot;&quot;&gt;&lt;span style=&quot;font-weight: 400;&quot;&gt;Kreiranje i izdavanje računa&lt;/span&gt;&lt;/li&gt;&lt;/ul&gt;&lt;/div&gt;&lt;/h5&gt;" style="text;strokeColor=none;fillColor=none;html=1;align=left;verticalAlign=middle;whiteSpace=wrap;rounded=0;fontSize=16;" vertex="1" parent="ILRJBUVe7SrAcvfU9ZJN-1">
          <mxGeometry x="-171" y="-344" width="259" height="42" as="geometry" />
        </mxCell>
        <mxCell id="ILRJBUVe7SrAcvfU9ZJN-10" value="" style="endArrow=classic;html=1;rounded=0;fontSize=12;startSize=8;endSize=8;curved=1;entryX=1.033;entryY=0.673;entryDx=0;entryDy=0;entryPerimeter=0;" edge="1" parent="ILRJBUVe7SrAcvfU9ZJN-1" target="ILRJBUVe7SrAcvfU9ZJN-2">
          <mxGeometry width="50" height="50" relative="1" as="geometry">
            <mxPoint x="68" y="-245" as="sourcePoint" />
            <mxPoint x="-12" y="-252" as="targetPoint" />
          </mxGeometry>
        </mxCell>
        <mxCell id="ILRJBUVe7SrAcvfU9ZJN-11" value="&lt;ul style=&quot;font-size: 12px;&quot;&gt;&lt;li&gt;Prikaz narudžbi(trenutno stanje narudžbe)&lt;/li&gt;&lt;li&gt;Prikaz statusa stolova,&lt;/li&gt;&lt;li&gt;Prikaz računa spremnih za izdavanje&lt;/li&gt;&lt;/ul&gt;" style="text;strokeColor=none;fillColor=none;html=1;align=left;verticalAlign=middle;whiteSpace=wrap;rounded=0;fontSize=10;" vertex="1" parent="ILRJBUVe7SrAcvfU9ZJN-1">
          <mxGeometry x="-171" y="-236" width="213" height="78" as="geometry" />
        </mxCell>
        <mxCell id="ILRJBUVe7SrAcvfU9ZJN-12" value="" style="endArrow=classic;html=1;rounded=0;fontSize=12;startSize=8;endSize=8;curved=1;entryX=0.409;entryY=-0.005;entryDx=0;entryDy=0;entryPerimeter=0;exitX=0.382;exitY=1.019;exitDx=0;exitDy=0;exitPerimeter=0;" edge="1" parent="ILRJBUVe7SrAcvfU9ZJN-1" source="ILRJBUVe7SrAcvfU9ZJN-5" target="ILRJBUVe7SrAcvfU9ZJN-3">
          <mxGeometry width="50" height="50" relative="1" as="geometry">
            <mxPoint x="130" y="-527" as="sourcePoint" />
            <mxPoint x="118" y="-316" as="targetPoint" />
          </mxGeometry>
        </mxCell>
        <mxCell id="ILRJBUVe7SrAcvfU9ZJN-13" value="" style="endArrow=classic;html=1;rounded=0;fontSize=12;startSize=8;endSize=8;curved=1;entryX=0.662;entryY=1.045;entryDx=0;entryDy=0;entryPerimeter=0;exitX=0.616;exitY=-0.007;exitDx=0;exitDy=0;exitPerimeter=0;" edge="1" parent="ILRJBUVe7SrAcvfU9ZJN-1" source="ILRJBUVe7SrAcvfU9ZJN-3" target="ILRJBUVe7SrAcvfU9ZJN-5">
          <mxGeometry width="50" height="50" relative="1" as="geometry">
            <mxPoint x="103" y="-407" as="sourcePoint" />
            <mxPoint x="153" y="-457" as="targetPoint" />
          </mxGeometry>
        </mxCell>
        <mxCell id="ILRJBUVe7SrAcvfU9ZJN-14" value="&lt;ul style=&quot;font-size: 12px;&quot;&gt;&lt;li&gt;&lt;span style=&quot;&quot;&gt;Upravljanje korisnicima&lt;/span&gt;&lt;/li&gt;&lt;li&gt;&lt;span style=&quot;&quot;&gt;Upravljanje menijima&lt;/span&gt;&lt;/li&gt;&lt;li&gt;&lt;span style=&quot;&quot;&gt;Generiranje izvještaja&lt;/span&gt;&lt;/li&gt;&lt;/ul&gt;" style="text;strokeColor=none;fillColor=none;html=1;align=left;verticalAlign=middle;whiteSpace=wrap;rounded=0;fontSize=16;" vertex="1" parent="ILRJBUVe7SrAcvfU9ZJN-1">
          <mxGeometry x="-72" y="-446" width="202" height="30" as="geometry" />
        </mxCell>
        <mxCell id="ILRJBUVe7SrAcvfU9ZJN-15" value="&lt;ul style=&quot;font-size: 12px;&quot;&gt;&lt;li&gt;&lt;font style=&quot;font-size: 12px;&quot;&gt;Prikaz i preuzimanje generiranih izvještaja&lt;/font&gt;&lt;/li&gt;&lt;li&gt;Potvrde o uspješno izvršenim promjenama u sustavu (npr. dodani novi artikli ili korisnici)&lt;/li&gt;&lt;/ul&gt;" style="text;strokeColor=none;fillColor=none;html=1;align=left;verticalAlign=middle;whiteSpace=wrap;rounded=0;fontSize=16;" vertex="1" parent="ILRJBUVe7SrAcvfU9ZJN-1">
          <mxGeometry x="178" y="-446" width="345" height="30" as="geometry" />
        </mxCell>
        <mxCell id="ILRJBUVe7SrAcvfU9ZJN-16" value="" style="endArrow=classic;html=1;rounded=0;fontSize=12;startSize=8;endSize=8;curved=1;exitX=0;exitY=0.25;exitDx=0;exitDy=0;entryX=1.012;entryY=0.363;entryDx=0;entryDy=0;entryPerimeter=0;" edge="1" parent="ILRJBUVe7SrAcvfU9ZJN-1" source="ILRJBUVe7SrAcvfU9ZJN-6" target="ILRJBUVe7SrAcvfU9ZJN-3">
          <mxGeometry width="50" height="50" relative="1" as="geometry">
            <mxPoint x="97" y="-310" as="sourcePoint" />
            <mxPoint x="147" y="-360" as="targetPoint" />
          </mxGeometry>
        </mxCell>
        <mxCell id="ILRJBUVe7SrAcvfU9ZJN-17" value="" style="endArrow=classic;html=1;rounded=0;fontSize=12;startSize=8;endSize=8;curved=1;exitX=1;exitY=0.25;exitDx=0;exitDy=0;" edge="1" parent="ILRJBUVe7SrAcvfU9ZJN-1" source="ILRJBUVe7SrAcvfU9ZJN-4">
          <mxGeometry width="50" height="50" relative="1" as="geometry">
            <mxPoint x="97" y="-310" as="sourcePoint" />
            <mxPoint x="504" y="-247" as="targetPoint" />
          </mxGeometry>
        </mxCell>
        <mxCell id="ILRJBUVe7SrAcvfU9ZJN-18" value="&lt;div&gt;&lt;font style=&quot;font-size: 12px;&quot;&gt;&amp;nbsp;Primanje podataka o narudžbama i iznosima za naplatu&lt;/font&gt;&lt;/div&gt;" style="text;strokeColor=none;fillColor=none;html=1;align=left;verticalAlign=middle;whiteSpace=wrap;rounded=0;fontSize=16;" vertex="1" parent="ILRJBUVe7SrAcvfU9ZJN-1">
          <mxGeometry x="245" y="-310" width="290" height="30" as="geometry" />
        </mxCell>
        <mxCell id="ILRJBUVe7SrAcvfU9ZJN-19" value="&lt;ul style=&quot;font-size: 12px;&quot;&gt;&lt;li&gt;&lt;span style=&quot;&quot;&gt;Potvrda o uspješno izvršenoj naplati&lt;/span&gt;&lt;/li&gt;&lt;li&gt;Izmjenjeni podaci o transakcijama&lt;/li&gt;&lt;/ul&gt;" style="text;strokeColor=none;fillColor=none;html=1;align=left;verticalAlign=middle;whiteSpace=wrap;rounded=0;fontSize=16;" vertex="1" parent="ILRJBUVe7SrAcvfU9ZJN-1">
          <mxGeometry x="225" y="-236" width="251" height="30" as="geometry" />
        </mxCell>
        <mxCell id="ILRJBUVe7SrAcvfU9ZJN-20" value="" style="endArrow=classic;html=1;rounded=0;fontSize=12;startSize=8;endSize=8;curved=1;exitX=0.368;exitY=0.001;exitDx=0;exitDy=0;entryX=0.401;entryY=1.004;entryDx=0;entryDy=0;entryPerimeter=0;exitPerimeter=0;" edge="1" parent="ILRJBUVe7SrAcvfU9ZJN-1" source="ILRJBUVe7SrAcvfU9ZJN-7" target="ILRJBUVe7SrAcvfU9ZJN-4">
          <mxGeometry width="50" height="50" relative="1" as="geometry">
            <mxPoint x="181" y="-95" as="sourcePoint" />
            <mxPoint x="231" y="-145" as="targetPoint" />
          </mxGeometry>
        </mxCell>
        <mxCell id="ILRJBUVe7SrAcvfU9ZJN-21" value="" style="endArrow=classic;html=1;rounded=0;fontSize=12;startSize=8;endSize=8;curved=1;exitX=0.625;exitY=1.048;exitDx=0;exitDy=0;exitPerimeter=0;entryX=0.673;entryY=-0.037;entryDx=0;entryDy=0;entryPerimeter=0;" edge="1" parent="ILRJBUVe7SrAcvfU9ZJN-1" source="ILRJBUVe7SrAcvfU9ZJN-4" target="ILRJBUVe7SrAcvfU9ZJN-7">
          <mxGeometry width="50" height="50" relative="1" as="geometry">
            <mxPoint x="181" y="-95" as="sourcePoint" />
            <mxPoint x="231" y="-145" as="targetPoint" />
          </mxGeometry>
        </mxCell>
        <mxCell id="ILRJBUVe7SrAcvfU9ZJN-22" value="&lt;font style=&quot;font-size: 12px;&quot;&gt;Zahtjev za održavanje aplikacije&lt;/font&gt;" style="text;strokeColor=none;fillColor=none;html=1;align=center;verticalAlign=middle;whiteSpace=wrap;rounded=0;fontSize=16;" vertex="1" parent="ILRJBUVe7SrAcvfU9ZJN-1">
          <mxGeometry x="-69" y="-111" width="233" height="30" as="geometry" />
        </mxCell>
        <mxCell id="ILRJBUVe7SrAcvfU9ZJN-23" value="&lt;font style=&quot;font-size: 12px;&quot;&gt;Ažurirana aplikacija&lt;/font&gt;" style="text;strokeColor=none;fillColor=none;html=1;align=center;verticalAlign=middle;whiteSpace=wrap;rounded=0;fontSize=16;" vertex="1" parent="ILRJBUVe7SrAcvfU9ZJN-1">
          <mxGeometry x="175" y="-111" width="131" height="30" as="geometry" />
        </mxCell>
      </root>
    </mxGraphModel>
  </diagram>
  <diagram id="lL44iEs1VEzuBuNxazOq" name="Page-2">
    <mxGraphModel dx="1713" dy="1515" grid="0" gridSize="10" guides="1" tooltips="1" connect="1" arrows="1" fold="1" page="0" pageScale="1" pageWidth="827" pageHeight="1169" math="0" shadow="0">
      <root>
        <mxCell id="0" />
        <mxCell id="1" parent="0" />
        <mxCell id="xNYbb-Bdjhpt3iasEB9A-1" value="&lt;b&gt;KORISNIK&lt;/b&gt;" style="rounded=0;whiteSpace=wrap;html=1;" vertex="1" parent="1">
          <mxGeometry x="-288" y="-285" width="120" height="60" as="geometry" />
        </mxCell>
        <mxCell id="xNYbb-Bdjhpt3iasEB9A-5" value="P0" style="swimlane;childLayout=stackLayout;horizontal=1;startSize=50;horizontalStack=0;rounded=1;fontSize=14;fontStyle=0;strokeWidth=2;resizeParent=0;resizeLast=1;shadow=0;dashed=0;align=center;arcSize=4;whiteSpace=wrap;html=1;" vertex="1" parent="1">
          <mxGeometry x="68" y="-315" width="160" height="120" as="geometry" />
        </mxCell>
        <mxCell id="xNYbb-Bdjhpt3iasEB9A-6" value="&lt;br&gt;&lt;div&gt;&lt;b&gt;KAFIĆ&lt;/b&gt;&lt;/div&gt;" style="align=center;strokeColor=none;fillColor=none;spacingLeft=4;fontSize=12;verticalAlign=top;resizable=0;rotatable=0;part=1;html=1;" vertex="1" parent="xNYbb-Bdjhpt3iasEB9A-5">
          <mxGeometry y="50" width="160" height="70" as="geometry" />
        </mxCell>
        <mxCell id="xNYbb-Bdjhpt3iasEB9A-10" value="&lt;b&gt;ADMINISTRATOR&lt;/b&gt;" style="rounded=0;whiteSpace=wrap;html=1;" vertex="1" parent="1">
          <mxGeometry x="88" y="-588" width="120" height="60" as="geometry" />
        </mxCell>
        <mxCell id="xNYbb-Bdjhpt3iasEB9A-14" value="&lt;b&gt;SUSTAV NAPLATE&lt;/b&gt;" style="rounded=0;whiteSpace=wrap;html=1;" vertex="1" parent="1">
          <mxGeometry x="503" y="-285" width="120" height="60" as="geometry" />
        </mxCell>
        <mxCell id="xNYbb-Bdjhpt3iasEB9A-15" value="&lt;b&gt;ODRŽAVANJE SUSTAVA&lt;/b&gt;" style="rounded=0;whiteSpace=wrap;html=1;" vertex="1" parent="1">
          <mxGeometry x="88" y="14" width="120" height="60" as="geometry" />
        </mxCell>
        <mxCell id="xNYbb-Bdjhpt3iasEB9A-16" value="" style="endArrow=classic;html=1;rounded=0;fontSize=12;startSize=8;endSize=8;curved=1;exitX=1;exitY=0.25;exitDx=0;exitDy=0;" edge="1" parent="1" source="xNYbb-Bdjhpt3iasEB9A-1">
          <mxGeometry width="50" height="50" relative="1" as="geometry">
            <mxPoint x="99" y="-240" as="sourcePoint" />
            <mxPoint x="63" y="-270" as="targetPoint" />
          </mxGeometry>
        </mxCell>
        <mxCell id="xNYbb-Bdjhpt3iasEB9A-17" value="&lt;h5 style=&quot;&quot;&gt;&lt;div style=&quot;font-size: 12px;&quot;&gt;&lt;div&gt;&lt;span style=&quot;font-weight: 400;&quot;&gt;&lt;br&gt;&lt;/span&gt;&lt;/div&gt;&lt;ul&gt;&lt;li&gt;&lt;span style=&quot;font-weight: 400;&quot;&gt;Unos narudžbi od gostiju&lt;/span&gt;&lt;/li&gt;&lt;li style=&quot;&quot;&gt;&lt;span style=&quot;font-weight: 400;&quot;&gt;Ažuriranje stanja stolova (slobano, zauzeto)&lt;/span&gt;&lt;/li&gt;&lt;li style=&quot;&quot;&gt;&lt;span style=&quot;font-weight: 400;&quot;&gt;Kreiranje i izdavanje računa&lt;/span&gt;&lt;/li&gt;&lt;/ul&gt;&lt;/div&gt;&lt;/h5&gt;" style="text;strokeColor=none;fillColor=none;html=1;align=left;verticalAlign=middle;whiteSpace=wrap;rounded=0;fontSize=16;" vertex="1" parent="1">
          <mxGeometry x="-171" y="-344" width="259" height="42" as="geometry" />
        </mxCell>
        <mxCell id="xNYbb-Bdjhpt3iasEB9A-18" value="" style="endArrow=classic;html=1;rounded=0;fontSize=12;startSize=8;endSize=8;curved=1;entryX=1.033;entryY=0.673;entryDx=0;entryDy=0;entryPerimeter=0;" edge="1" parent="1" target="xNYbb-Bdjhpt3iasEB9A-1">
          <mxGeometry width="50" height="50" relative="1" as="geometry">
            <mxPoint x="68" y="-245" as="sourcePoint" />
            <mxPoint x="-12" y="-252" as="targetPoint" />
          </mxGeometry>
        </mxCell>
        <mxCell id="xNYbb-Bdjhpt3iasEB9A-19" value="&lt;ul style=&quot;font-size: 12px;&quot;&gt;&lt;li&gt;Prikaz narudžbi(trenutno stanje narudžbe)&lt;/li&gt;&lt;li&gt;Prikaz statusa stolova,&lt;/li&gt;&lt;li&gt;Prikaz računa spremnih za izdavanje&lt;/li&gt;&lt;/ul&gt;" style="text;strokeColor=none;fillColor=none;html=1;align=left;verticalAlign=middle;whiteSpace=wrap;rounded=0;fontSize=10;" vertex="1" parent="1">
          <mxGeometry x="-171" y="-236" width="213" height="78" as="geometry" />
        </mxCell>
        <mxCell id="xNYbb-Bdjhpt3iasEB9A-20" value="" style="endArrow=classic;html=1;rounded=0;fontSize=12;startSize=8;endSize=8;curved=1;entryX=0.409;entryY=-0.005;entryDx=0;entryDy=0;entryPerimeter=0;exitX=0.382;exitY=1.019;exitDx=0;exitDy=0;exitPerimeter=0;" edge="1" parent="1" source="xNYbb-Bdjhpt3iasEB9A-10" target="xNYbb-Bdjhpt3iasEB9A-5">
          <mxGeometry width="50" height="50" relative="1" as="geometry">
            <mxPoint x="130" y="-527" as="sourcePoint" />
            <mxPoint x="118" y="-316" as="targetPoint" />
          </mxGeometry>
        </mxCell>
        <mxCell id="xNYbb-Bdjhpt3iasEB9A-22" value="" style="endArrow=classic;html=1;rounded=0;fontSize=12;startSize=8;endSize=8;curved=1;entryX=0.662;entryY=1.045;entryDx=0;entryDy=0;entryPerimeter=0;exitX=0.616;exitY=-0.007;exitDx=0;exitDy=0;exitPerimeter=0;" edge="1" parent="1" source="xNYbb-Bdjhpt3iasEB9A-5" target="xNYbb-Bdjhpt3iasEB9A-10">
          <mxGeometry width="50" height="50" relative="1" as="geometry">
            <mxPoint x="103" y="-407" as="sourcePoint" />
            <mxPoint x="153" y="-457" as="targetPoint" />
          </mxGeometry>
        </mxCell>
        <mxCell id="xNYbb-Bdjhpt3iasEB9A-24" value="&lt;ul style=&quot;font-size: 12px;&quot;&gt;&lt;li&gt;&lt;span style=&quot;&quot;&gt;Upravljanje korisnicima&lt;/span&gt;&lt;/li&gt;&lt;li&gt;&lt;span style=&quot;&quot;&gt;Upravljanje menijima&lt;/span&gt;&lt;/li&gt;&lt;li&gt;&lt;span style=&quot;&quot;&gt;Generiranje izvještaja&lt;/span&gt;&lt;/li&gt;&lt;/ul&gt;" style="text;strokeColor=none;fillColor=none;html=1;align=left;verticalAlign=middle;whiteSpace=wrap;rounded=0;fontSize=16;" vertex="1" parent="1">
          <mxGeometry x="-72" y="-446" width="202" height="30" as="geometry" />
        </mxCell>
        <mxCell id="xNYbb-Bdjhpt3iasEB9A-25" value="&lt;ul style=&quot;font-size: 12px;&quot;&gt;&lt;li&gt;&lt;font style=&quot;font-size: 12px;&quot;&gt;Prikaz i preuzimanje generiranih izvještaja&lt;/font&gt;&lt;/li&gt;&lt;li&gt;Potvrde o uspješno izvršenim promjenama u sustavu (npr. dodani novi artikli ili korisnici)&lt;/li&gt;&lt;/ul&gt;" style="text;strokeColor=none;fillColor=none;html=1;align=left;verticalAlign=middle;whiteSpace=wrap;rounded=0;fontSize=16;" vertex="1" parent="1">
          <mxGeometry x="178" y="-446" width="345" height="30" as="geometry" />
        </mxCell>
        <mxCell id="xNYbb-Bdjhpt3iasEB9A-26" value="" style="endArrow=classic;html=1;rounded=0;fontSize=12;startSize=8;endSize=8;curved=1;exitX=0;exitY=0.25;exitDx=0;exitDy=0;entryX=1.012;entryY=0.363;entryDx=0;entryDy=0;entryPerimeter=0;" edge="1" parent="1" source="xNYbb-Bdjhpt3iasEB9A-14" target="xNYbb-Bdjhpt3iasEB9A-5">
          <mxGeometry width="50" height="50" relative="1" as="geometry">
            <mxPoint x="97" y="-310" as="sourcePoint" />
            <mxPoint x="147" y="-360" as="targetPoint" />
          </mxGeometry>
        </mxCell>
        <mxCell id="xNYbb-Bdjhpt3iasEB9A-27" value="" style="endArrow=classic;html=1;rounded=0;fontSize=12;startSize=8;endSize=8;curved=1;exitX=1;exitY=0.25;exitDx=0;exitDy=0;" edge="1" parent="1" source="xNYbb-Bdjhpt3iasEB9A-6">
          <mxGeometry width="50" height="50" relative="1" as="geometry">
            <mxPoint x="97" y="-310" as="sourcePoint" />
            <mxPoint x="504" y="-247" as="targetPoint" />
          </mxGeometry>
        </mxCell>
        <mxCell id="xNYbb-Bdjhpt3iasEB9A-28" value="&lt;div&gt;&lt;font style=&quot;font-size: 12px;&quot;&gt;&amp;nbsp;Primanje podataka o narudžbama i iznosima za naplatu&lt;/font&gt;&lt;/div&gt;" style="text;strokeColor=none;fillColor=none;html=1;align=left;verticalAlign=middle;whiteSpace=wrap;rounded=0;fontSize=16;" vertex="1" parent="1">
          <mxGeometry x="245" y="-310" width="290" height="30" as="geometry" />
        </mxCell>
        <mxCell id="xNYbb-Bdjhpt3iasEB9A-29" value="&lt;ul style=&quot;font-size: 12px;&quot;&gt;&lt;li&gt;&lt;span style=&quot;&quot;&gt;Potvrda o uspješno izvršenoj naplati&lt;/span&gt;&lt;/li&gt;&lt;li&gt;Izmjenjeni podaci o transakcijama&lt;/li&gt;&lt;/ul&gt;" style="text;strokeColor=none;fillColor=none;html=1;align=left;verticalAlign=middle;whiteSpace=wrap;rounded=0;fontSize=16;" vertex="1" parent="1">
          <mxGeometry x="225" y="-236" width="251" height="30" as="geometry" />
        </mxCell>
        <mxCell id="xNYbb-Bdjhpt3iasEB9A-30" value="" style="endArrow=classic;html=1;rounded=0;fontSize=12;startSize=8;endSize=8;curved=1;exitX=0.368;exitY=0.001;exitDx=0;exitDy=0;entryX=0.401;entryY=1.004;entryDx=0;entryDy=0;entryPerimeter=0;exitPerimeter=0;" edge="1" parent="1" source="xNYbb-Bdjhpt3iasEB9A-15" target="xNYbb-Bdjhpt3iasEB9A-6">
          <mxGeometry width="50" height="50" relative="1" as="geometry">
            <mxPoint x="181" y="-95" as="sourcePoint" />
            <mxPoint x="231" y="-145" as="targetPoint" />
          </mxGeometry>
        </mxCell>
        <mxCell id="xNYbb-Bdjhpt3iasEB9A-31" value="" style="endArrow=classic;html=1;rounded=0;fontSize=12;startSize=8;endSize=8;curved=1;exitX=0.625;exitY=1.048;exitDx=0;exitDy=0;exitPerimeter=0;entryX=0.673;entryY=-0.037;entryDx=0;entryDy=0;entryPerimeter=0;" edge="1" parent="1" source="xNYbb-Bdjhpt3iasEB9A-6" target="xNYbb-Bdjhpt3iasEB9A-15">
          <mxGeometry width="50" height="50" relative="1" as="geometry">
            <mxPoint x="181" y="-95" as="sourcePoint" />
            <mxPoint x="231" y="-145" as="targetPoint" />
          </mxGeometry>
        </mxCell>
        <mxCell id="xNYbb-Bdjhpt3iasEB9A-32" value="&lt;font style=&quot;font-size: 12px;&quot;&gt;Zahtjev za održavanje aplikacije&lt;/font&gt;" style="text;strokeColor=none;fillColor=none;html=1;align=center;verticalAlign=middle;whiteSpace=wrap;rounded=0;fontSize=16;" vertex="1" parent="1">
          <mxGeometry x="-69" y="-111" width="233" height="30" as="geometry" />
        </mxCell>
        <mxCell id="xNYbb-Bdjhpt3iasEB9A-33" value="&lt;font style=&quot;font-size: 12px;&quot;&gt;Ažurirana aplikacija&lt;/font&gt;" style="text;strokeColor=none;fillColor=none;html=1;align=center;verticalAlign=middle;whiteSpace=wrap;rounded=0;fontSize=16;" vertex="1" parent="1">
          <mxGeometry x="175" y="-111" width="131" height="30" as="geometry" />
        </mxCell>
      </root>
    </mxGraphModel>
  </diagram>
</mxfile>
